<svg width="24" height="26" viewBox="0 0 24 26" fill="none" xmlns="http://www.w3.org/2000/svg">
<path d="M17.4248 13.0001L1.41129 0.57749C0.79811 1.05702 0.385056 1.80193 0.385056 2.69004L0.385056 23.3102C0.385056 24.1983 0.79811 24.9432 1.41129 25.4221L17.4248 13.0001Z" fill="#9DC6FB"/>
<path d="M22.2717 10.674L18.397 8.43674L15.0009 8.86142L13.8344 13L14.4268 16.9623L18.397 17.5627L22.2717 15.3261C24.0626 14.2922 24.0626 11.7079 22.2717 10.674Z" fill="#FFE07D"/>
<path d="M18.3967 8.43676L4.41403 0.363906C3.39231 -0.225614 2.22541 -0.0586948 1.41148 0.577442L13.8341 13.0001L18.3967 8.43676Z" fill="#DD5790"/>
<path d="M18.3967 17.5628L13.8341 13.0001L1.41148 25.4221C2.22541 26.059 3.39231 26.2258 4.41403 25.6363L18.3967 17.5628Z" fill="#95D6A4"/>
<path d="M3.41248 2.69C3.41248 2.50952 3.42924 2.33534 3.46164 2.16792L1.41145 0.577549C0.798313 1.05677 0.385056 1.80168 0.385056 2.69L0.385056 23.3102C0.385056 24.1979 0.798364 24.9429 1.41145 25.4221L3.46164 23.8318C3.42919 23.6644 3.41248 23.4901 3.41248 23.3102L3.41248 2.69Z" fill="#80B4FB"/>
<path d="M4.59219 0.466095L4.4143 0.363567C3.39258 -0.225497 2.22548 -0.0586286 1.41145 0.577509L3.41457 2.58063C3.44702 1.74045 3.85088 1.03683 4.43837 0.577509H4.43888C4.48859 0.538814 4.53988 0.501184 4.59219 0.466095Z" fill="#DA387D"/>
<path d="M4.43891 25.4221L4.43942 25.4211L4.43835 25.4221C3.85036 24.9628 3.447 24.2586 3.41455 23.419L1.41148 25.4221C2.22546 26.0588 3.39261 26.2256 4.41428 25.6361L4.59217 25.5335C4.53986 25.4985 4.48857 25.4608 4.43891 25.4221Z" fill="#78C2A4"/>
</svg>
